<mxfile host="Electron" modified="2024-07-16T12:08:53.221Z" agent="Mozilla/5.0 (X11; Linux x86_64) AppleWebKit/537.36 (KHTML, like Gecko) draw.io/24.6.4 Chrome/124.0.6367.207 Electron/30.0.6 Safari/537.36" etag="Y9dvmiXbzOeZrrfKal4t" version="24.6.4" type="device">
  <diagram name="Page-1" id="OWm6JN1-mjV2NO-qpUYA">
    <mxGraphModel dx="2088" dy="2389" grid="1" gridSize="10" guides="1" tooltips="1" connect="1" arrows="1" fold="1" page="1" pageScale="1" pageWidth="850" pageHeight="1100" math="0" shadow="0">
      <root>
        <mxCell id="0" />
        <mxCell id="1" parent="0" />
        <mxCell id="9U7nXSSRrDvz8QAHJqQ8-1" value="Network Account" style="points=[[0,0],[0.25,0],[0.5,0],[0.75,0],[1,0],[1,0.25],[1,0.5],[1,0.75],[1,1],[0.75,1],[0.5,1],[0.25,1],[0,1],[0,0.75],[0,0.5],[0,0.25]];outlineConnect=0;gradientColor=none;html=1;whiteSpace=wrap;fontSize=12;fontStyle=0;container=1;pointerEvents=0;collapsible=0;recursiveResize=0;shape=mxgraph.aws4.group;grIcon=mxgraph.aws4.group_account;strokeColor=#CD2264;fillColor=none;verticalAlign=top;align=left;spacingLeft=30;fontColor=#CD2264;dashed=0;" parent="1" vertex="1">
          <mxGeometry x="70" y="-790" width="750" height="730" as="geometry" />
        </mxCell>
        <mxCell id="9U7nXSSRrDvz8QAHJqQ8-16" value="Availability zone" style="sketch=0;outlineConnect=0;gradientColor=none;html=1;whiteSpace=wrap;fontSize=12;fontStyle=0;shape=mxgraph.aws4.group;grIcon=mxgraph.aws4.group_availability_zone;strokeColor=#545B64;fillColor=none;verticalAlign=top;align=left;spacingLeft=30;fontColor=#545B64;dashed=1;" parent="9U7nXSSRrDvz8QAHJqQ8-1" vertex="1">
          <mxGeometry x="50" y="70" width="260" height="600" as="geometry" />
        </mxCell>
        <mxCell id="9U7nXSSRrDvz8QAHJqQ8-17" value="Availability zone" style="sketch=0;outlineConnect=0;gradientColor=none;html=1;whiteSpace=wrap;fontSize=12;fontStyle=0;shape=mxgraph.aws4.group;grIcon=mxgraph.aws4.group_availability_zone;strokeColor=#545B64;fillColor=none;verticalAlign=top;align=left;spacingLeft=30;fontColor=#545B64;dashed=1;" parent="9U7nXSSRrDvz8QAHJqQ8-1" vertex="1">
          <mxGeometry x="400" y="70" width="250" height="600" as="geometry" />
        </mxCell>
        <mxCell id="9U7nXSSRrDvz8QAHJqQ8-20" value="Private subnet" style="points=[[0,0],[0.25,0],[0.5,0],[0.75,0],[1,0],[1,0.25],[1,0.5],[1,0.75],[1,1],[0.75,1],[0.5,1],[0.25,1],[0,1],[0,0.75],[0,0.5],[0,0.25]];outlineConnect=0;gradientColor=none;html=1;whiteSpace=wrap;fontSize=12;fontStyle=0;container=1;pointerEvents=0;collapsible=0;recursiveResize=0;shape=mxgraph.aws4.group;grIcon=mxgraph.aws4.group_security_group;grStroke=0;strokeColor=#00A4A6;fillColor=#E6F6F7;verticalAlign=top;align=left;spacingLeft=30;fontColor=#147EBA;dashed=0;" parent="9U7nXSSRrDvz8QAHJqQ8-1" vertex="1">
          <mxGeometry x="90" y="300" width="130" height="130" as="geometry" />
        </mxCell>
        <mxCell id="9U7nXSSRrDvz8QAHJqQ8-21" value="Private subnet" style="points=[[0,0],[0.25,0],[0.5,0],[0.75,0],[1,0],[1,0.25],[1,0.5],[1,0.75],[1,1],[0.75,1],[0.5,1],[0.25,1],[0,1],[0,0.75],[0,0.5],[0,0.25]];outlineConnect=0;gradientColor=none;html=1;whiteSpace=wrap;fontSize=12;fontStyle=0;container=1;pointerEvents=0;collapsible=0;recursiveResize=0;shape=mxgraph.aws4.group;grIcon=mxgraph.aws4.group_security_group;grStroke=0;strokeColor=#00A4A6;fillColor=#E6F6F7;verticalAlign=top;align=left;spacingLeft=30;fontColor=#147EBA;dashed=0;" parent="9U7nXSSRrDvz8QAHJqQ8-1" vertex="1">
          <mxGeometry x="90" y="510" width="130" height="140" as="geometry" />
        </mxCell>
        <mxCell id="9U7nXSSRrDvz8QAHJqQ8-18" value="&lt;div&gt;&lt;br&gt;&lt;/div&gt;&lt;div&gt;&lt;br&gt;&lt;/div&gt;&lt;div&gt;&lt;br&gt;&lt;/div&gt;&lt;div&gt;&lt;br&gt;&lt;/div&gt;&lt;div&gt;&lt;br&gt;&lt;/div&gt;&lt;div&gt;&lt;br&gt;&lt;/div&gt;&lt;div&gt;&lt;br&gt;&lt;/div&gt;&lt;div&gt;&lt;br&gt;&lt;/div&gt;&lt;div&gt;&lt;br&gt;&lt;/div&gt;&lt;div&gt;&lt;br&gt;&lt;/div&gt;&lt;div&gt;&lt;br&gt;&lt;/div&gt;&lt;div&gt;&lt;br&gt;&lt;/div&gt;&lt;div&gt;&lt;br&gt;&lt;/div&gt;&lt;div&gt;&lt;br&gt;&lt;/div&gt;&lt;div&gt;&lt;br&gt;&lt;/div&gt;&lt;div&gt;&lt;br&gt;&lt;/div&gt;&lt;div&gt;&lt;br&gt;&lt;/div&gt;&lt;div&gt;&lt;br&gt;&lt;/div&gt;&lt;div&gt;&lt;br&gt;&lt;/div&gt;&lt;div&gt;&lt;br&gt;&lt;/div&gt;&lt;div&gt;&lt;br&gt;&lt;/div&gt;&lt;div&gt;&lt;br&gt;&lt;/div&gt;&lt;div&gt;&lt;br&gt;&lt;/div&gt;&lt;div&gt;&lt;br&gt;&lt;/div&gt;&lt;div&gt;&lt;br&gt;&lt;/div&gt;&lt;div&gt;&lt;br&gt;&lt;/div&gt;&lt;div&gt;&lt;br&gt;&lt;/div&gt;&lt;div&gt;&lt;br&gt;&lt;/div&gt;&lt;div&gt;&lt;br&gt;&lt;/div&gt;&lt;div&gt;&lt;br&gt;&lt;/div&gt;&lt;div&gt;&lt;br&gt;&lt;/div&gt;&lt;div&gt;&lt;br&gt;&lt;/div&gt;&lt;div&gt;&lt;br&gt;&lt;/div&gt;&lt;div&gt;&lt;br&gt;&lt;/div&gt;&lt;div&gt;&lt;br&gt;&lt;/div&gt;&lt;div&gt;&lt;br&gt;&lt;/div&gt;&lt;div&gt;&lt;br&gt;&lt;/div&gt;&lt;div&gt;&lt;br&gt;&lt;/div&gt;&lt;div&gt;&lt;br&gt;&lt;/div&gt;&lt;div&gt;&lt;br&gt;&lt;/div&gt;&lt;div&gt;&lt;br&gt;&lt;/div&gt;&lt;div&gt;&lt;br&gt;&lt;/div&gt;&lt;div&gt;&lt;br&gt;&lt;/div&gt;&lt;div&gt;&lt;br&gt;&lt;/div&gt;&lt;div&gt;&lt;br&gt;&lt;/div&gt;&lt;div&gt;&lt;br&gt;&lt;/div&gt;&lt;div&gt;&lt;br&gt;&lt;/div&gt;&lt;div&gt;&lt;br&gt;&lt;/div&gt;&lt;div&gt;&lt;br&gt;&lt;/div&gt;&lt;div&gt;&lt;br&gt;&lt;/div&gt;&lt;div&gt;&lt;br&gt;&lt;/div&gt;&lt;div&gt;&lt;br&gt;&lt;/div&gt;&lt;div&gt;&lt;br&gt;&lt;/div&gt;&lt;div&gt;&lt;br&gt;&lt;/div&gt;&lt;div&gt;&lt;br&gt;&lt;/div&gt;&lt;div&gt;&lt;br&gt;&lt;/div&gt;&lt;div&gt;&lt;br&gt;&lt;/div&gt;&lt;div&gt;&lt;br&gt;&lt;/div&gt;&lt;div&gt;&lt;br&gt;&lt;/div&gt;&lt;div&gt;&lt;br&gt;&lt;/div&gt;&lt;div&gt;&lt;br&gt;&lt;/div&gt;&lt;div&gt;&lt;br&gt;&lt;/div&gt;&lt;div&gt;&lt;br&gt;&lt;/div&gt;&lt;div&gt;&lt;br&gt;&lt;/div&gt;&lt;div&gt;&lt;br&gt;&lt;/div&gt;&lt;div&gt;&lt;br&gt;&lt;/div&gt;&lt;div&gt;&lt;br&gt;&lt;/div&gt;&lt;div&gt;&lt;br&gt;&lt;/div&gt;&lt;div&gt;&lt;br&gt;&lt;/div&gt;&lt;div&gt;&lt;br&gt;&lt;/div&gt;&lt;div&gt;&lt;br&gt;&lt;/div&gt;&lt;div&gt;&lt;br&gt;&lt;/div&gt;&lt;div&gt;&lt;br&gt;&lt;/div&gt;&lt;div&gt;&lt;br&gt;&lt;/div&gt;&lt;div&gt;&lt;br&gt;&lt;/div&gt;&lt;div&gt;&lt;br&gt;&lt;/div&gt;&lt;div&gt;&lt;br&gt;&lt;/div&gt;&lt;div&gt;&lt;br&gt;&lt;/div&gt;&lt;div&gt;&lt;br&gt;&lt;/div&gt;&lt;div&gt;&lt;br&gt;&lt;/div&gt;&lt;div&gt;&lt;br&gt;&lt;/div&gt;&lt;div&gt;&lt;br&gt;&lt;/div&gt;&lt;div&gt;&lt;br&gt;&lt;/div&gt;&lt;div&gt;&lt;br&gt;&lt;/div&gt;&lt;div&gt;&lt;br&gt;&lt;/div&gt;&lt;div&gt;&lt;br&gt;&lt;/div&gt;&lt;div&gt;&lt;br&gt;&lt;/div&gt;&lt;div&gt;&lt;br&gt;&lt;/div&gt;&lt;div&gt;&lt;br&gt;&lt;/div&gt;&lt;div&gt;&lt;br&gt;&lt;/div&gt;&lt;div&gt;&lt;br&gt;&lt;/div&gt;&lt;div&gt;&lt;br&gt;&lt;/div&gt;&lt;div&gt;&lt;br&gt;&lt;/div&gt;&lt;div&gt;&lt;br&gt;&lt;/div&gt;&lt;div&gt;&lt;br&gt;&lt;/div&gt;&lt;div&gt;&lt;br&gt;&lt;/div&gt;&lt;div&gt;&lt;br&gt;&lt;/div&gt;&lt;div&gt;&lt;br&gt;&lt;/div&gt;&lt;div&gt;&lt;br&gt;&lt;/div&gt;&lt;div&gt;&lt;br&gt;&lt;/div&gt;&lt;div&gt;&lt;br&gt;&lt;/div&gt;&lt;div&gt;&lt;br&gt;&lt;/div&gt;&lt;div&gt;&lt;br&gt;&lt;/div&gt;&lt;div&gt;&lt;br&gt;&lt;/div&gt;&lt;div&gt;&lt;br&gt;&lt;/div&gt;&lt;div&gt;&lt;br&gt;&lt;/div&gt;&lt;div&gt;&lt;br&gt;&lt;/div&gt;&lt;div&gt;&lt;br&gt;&lt;/div&gt;&lt;div&gt;&lt;br&gt;&lt;/div&gt;&lt;div&gt;&lt;br&gt;&lt;/div&gt;&lt;div&gt;&lt;br&gt;&lt;/div&gt;&lt;div&gt;&lt;br&gt;&lt;/div&gt;&lt;div&gt;&lt;br&gt;&lt;/div&gt;&lt;div&gt;&lt;br&gt;&lt;/div&gt;&lt;div&gt;&lt;br&gt;&lt;/div&gt;&lt;div&gt;&lt;br&gt;&lt;/div&gt;&lt;div&gt;&lt;br&gt;&lt;/div&gt;&lt;div&gt;&lt;br&gt;&lt;/div&gt;&lt;div&gt;&lt;br&gt;&lt;/div&gt;&lt;div&gt;&lt;br&gt;&lt;/div&gt;&lt;div&gt;&lt;br&gt;&lt;/div&gt;&lt;div&gt;&lt;br&gt;&lt;/div&gt;&lt;div&gt;&lt;br&gt;&lt;/div&gt;&lt;div&gt;&lt;br&gt;&lt;/div&gt;&lt;div&gt;&lt;br&gt;&lt;/div&gt;&lt;div&gt;&lt;br&gt;&lt;/div&gt;&lt;div&gt;&lt;br&gt;&lt;/div&gt;&lt;div&gt;&lt;br&gt;&lt;/div&gt;&lt;div&gt;&lt;br&gt;&lt;/div&gt;&lt;div&gt;&lt;br&gt;&lt;/div&gt;&lt;div&gt;&lt;br&gt;&lt;/div&gt;&lt;div&gt;&lt;br&gt;&lt;/div&gt;&lt;div&gt;&lt;br&gt;&lt;/div&gt;&lt;div&gt;&lt;br&gt;&lt;/div&gt;&lt;div&gt;&lt;br&gt;&lt;/div&gt;&lt;div&gt;&lt;br&gt;&lt;/div&gt;&lt;div&gt;&lt;br&gt;&lt;/div&gt;&lt;div&gt;&lt;br&gt;&lt;/div&gt;&lt;div&gt;&lt;br&gt;&lt;/div&gt;&lt;div&gt;&lt;br&gt;&lt;/div&gt;&lt;div&gt;&lt;br&gt;&lt;/div&gt;&lt;div&gt;&lt;br&gt;&lt;/div&gt;&lt;div&gt;&lt;br&gt;&lt;/div&gt;&lt;div&gt;&lt;br&gt;&lt;/div&gt;&lt;div&gt;&lt;br&gt;&lt;/div&gt;&lt;div&gt;&lt;br&gt;&lt;/div&gt;&lt;div&gt;&lt;br&gt;&lt;/div&gt;&lt;div&gt;&lt;br&gt;&lt;/div&gt;&lt;div&gt;&lt;br&gt;&lt;/div&gt;&lt;div&gt;&lt;br&gt;&lt;/div&gt;&lt;div&gt;&lt;br&gt;&lt;/div&gt;&lt;div&gt;&lt;br&gt;&lt;/div&gt;&lt;div&gt;&lt;br&gt;&lt;/div&gt;&lt;div&gt;&lt;br&gt;&lt;/div&gt;&lt;div&gt;&lt;br&gt;&lt;/div&gt;&lt;div&gt;&lt;br&gt;&lt;/div&gt;&lt;div&gt;&lt;br&gt;&lt;/div&gt;&lt;div&gt;&lt;br&gt;&lt;/div&gt;&lt;div&gt;&lt;br&gt;&lt;/div&gt;&lt;div&gt;&lt;br&gt;&lt;/div&gt;&lt;div&gt;&lt;br&gt;&lt;/div&gt;&lt;div&gt;&lt;br&gt;&lt;/div&gt;&lt;div&gt;&lt;br&gt;&lt;/div&gt;&lt;div&gt;&lt;br&gt;&lt;/div&gt;&lt;div&gt;&lt;br&gt;&lt;/div&gt;&lt;div&gt;&lt;br&gt;&lt;/div&gt;&lt;div&gt;&lt;br&gt;&lt;/div&gt;" style="sketch=0;outlineConnect=0;gradientColor=none;html=1;whiteSpace=wrap;fontSize=12;fontStyle=0;shape=mxgraph.aws4.group;grIcon=mxgraph.aws4.group_vpc;strokeColor=#879196;fillColor=none;verticalAlign=top;align=left;spacingLeft=30;fontColor=#879196;dashed=0;" parent="9U7nXSSRrDvz8QAHJqQ8-1" vertex="1">
          <mxGeometry x="40" y="35" width="650" height="665" as="geometry" />
        </mxCell>
        <mxCell id="9U7nXSSRrDvz8QAHJqQ8-23" value="Private subnet" style="points=[[0,0],[0.25,0],[0.5,0],[0.75,0],[1,0],[1,0.25],[1,0.5],[1,0.75],[1,1],[0.75,1],[0.5,1],[0.25,1],[0,1],[0,0.75],[0,0.5],[0,0.25]];outlineConnect=0;gradientColor=none;html=1;whiteSpace=wrap;fontSize=12;fontStyle=0;container=1;pointerEvents=0;collapsible=0;recursiveResize=0;shape=mxgraph.aws4.group;grIcon=mxgraph.aws4.group_security_group;grStroke=0;strokeColor=#00A4A6;fillColor=#E6F6F7;verticalAlign=top;align=left;spacingLeft=30;fontColor=#147EBA;dashed=0;" parent="9U7nXSSRrDvz8QAHJqQ8-1" vertex="1">
          <mxGeometry x="480" y="300" width="130" height="130" as="geometry" />
        </mxCell>
        <mxCell id="9U7nXSSRrDvz8QAHJqQ8-24" value="Private subnet" style="points=[[0,0],[0.25,0],[0.5,0],[0.75,0],[1,0],[1,0.25],[1,0.5],[1,0.75],[1,1],[0.75,1],[0.5,1],[0.25,1],[0,1],[0,0.75],[0,0.5],[0,0.25]];outlineConnect=0;gradientColor=none;html=1;whiteSpace=wrap;fontSize=12;fontStyle=0;container=1;pointerEvents=0;collapsible=0;recursiveResize=0;shape=mxgraph.aws4.group;grIcon=mxgraph.aws4.group_security_group;grStroke=0;strokeColor=#00A4A6;fillColor=#E6F6F7;verticalAlign=top;align=left;spacingLeft=30;fontColor=#147EBA;dashed=0;" parent="9U7nXSSRrDvz8QAHJqQ8-1" vertex="1">
          <mxGeometry x="480" y="510" width="130" height="140" as="geometry" />
        </mxCell>
        <mxCell id="9U7nXSSRrDvz8QAHJqQ8-25" value="Public subnet" style="points=[[0,0],[0.25,0],[0.5,0],[0.75,0],[1,0],[1,0.25],[1,0.5],[1,0.75],[1,1],[0.75,1],[0.5,1],[0.25,1],[0,1],[0,0.75],[0,0.5],[0,0.25]];outlineConnect=0;gradientColor=none;html=1;whiteSpace=wrap;fontSize=12;fontStyle=0;container=1;pointerEvents=0;collapsible=0;recursiveResize=0;shape=mxgraph.aws4.group;grIcon=mxgraph.aws4.group_security_group;grStroke=0;strokeColor=#7AA116;fillColor=#F2F6E8;verticalAlign=top;align=left;spacingLeft=30;fontColor=#248814;dashed=0;" parent="9U7nXSSRrDvz8QAHJqQ8-1" vertex="1">
          <mxGeometry x="480" y="110" width="130" height="110" as="geometry" />
        </mxCell>
        <mxCell id="9U7nXSSRrDvz8QAHJqQ8-35" value="NAT gateway" style="sketch=0;outlineConnect=0;fontColor=#232F3E;gradientColor=none;strokeColor=#232F3E;fillColor=#ffffff;dashed=0;verticalLabelPosition=bottom;verticalAlign=top;align=center;html=1;fontSize=12;fontStyle=0;aspect=fixed;shape=mxgraph.aws4.resourceIcon;resIcon=mxgraph.aws4.nat_gateway;" parent="9U7nXSSRrDvz8QAHJqQ8-25" vertex="1">
          <mxGeometry x="36.25" y="26.25" width="57.5" height="57.5" as="geometry" />
        </mxCell>
        <mxCell id="9U7nXSSRrDvz8QAHJqQ8-26" value="" style="image;html=1;image=img/lib/clip_art/networking/Firewall_02_128x128.png" parent="9U7nXSSRrDvz8QAHJqQ8-1" vertex="1">
          <mxGeometry x="115" y="545" width="80" height="70" as="geometry" />
        </mxCell>
        <mxCell id="9U7nXSSRrDvz8QAHJqQ8-81" value="" style="sketch=0;outlineConnect=0;fontColor=#232F3E;gradientColor=none;fillColor=#8C4FFF;strokeColor=none;dashed=0;verticalLabelPosition=bottom;verticalAlign=top;align=center;html=1;fontSize=12;fontStyle=0;aspect=fixed;pointerEvents=1;shape=mxgraph.aws4.transit_gateway_attachment;" parent="9U7nXSSRrDvz8QAHJqQ8-1" vertex="1">
          <mxGeometry x="660" y="570" width="60" height="60" as="geometry" />
        </mxCell>
        <mxCell id="9U7nXSSRrDvz8QAHJqQ8-84" value="" style="outlineConnect=0;dashed=0;verticalLabelPosition=bottom;verticalAlign=top;align=center;html=1;shape=mxgraph.aws3.route_table;fillColor=#F58536;gradientColor=none;" parent="9U7nXSSRrDvz8QAHJqQ8-1" vertex="1">
          <mxGeometry x="240" y="440" width="50" height="50" as="geometry" />
        </mxCell>
        <mxCell id="A2wYe5Lk7VYMT8OSqMmi-5" value="" style="outlineConnect=0;dashed=0;verticalLabelPosition=bottom;verticalAlign=top;align=center;html=1;shape=mxgraph.aws3.route_table;fillColor=#F58536;gradientColor=none;" parent="9U7nXSSRrDvz8QAHJqQ8-1" vertex="1">
          <mxGeometry x="420" y="440" width="50" height="50" as="geometry" />
        </mxCell>
        <mxCell id="A2wYe5Lk7VYMT8OSqMmi-6" value="" style="endArrow=none;dashed=1;html=1;rounded=0;exitX=0.277;exitY=0.759;exitDx=0;exitDy=0;exitPerimeter=0;" parent="9U7nXSSRrDvz8QAHJqQ8-1" edge="1" target="9U7nXSSRrDvz8QAHJqQ8-84" source="9U7nXSSRrDvz8QAHJqQ8-18">
          <mxGeometry width="50" height="50" relative="1" as="geometry">
            <mxPoint x="220" y="370" as="sourcePoint" />
            <mxPoint x="260" y="370" as="targetPoint" />
          </mxGeometry>
        </mxCell>
        <mxCell id="A2wYe5Lk7VYMT8OSqMmi-7" value="" style="endArrow=none;dashed=1;html=1;rounded=0;entryX=0;entryY=0;entryDx=0;entryDy=0;" parent="9U7nXSSRrDvz8QAHJqQ8-1" source="A2wYe5Lk7VYMT8OSqMmi-5" edge="1" target="9U7nXSSRrDvz8QAHJqQ8-24">
          <mxGeometry width="50" height="50" relative="1" as="geometry">
            <mxPoint x="430" y="410" as="sourcePoint" />
            <mxPoint x="480" y="360" as="targetPoint" />
          </mxGeometry>
        </mxCell>
        <mxCell id="A2wYe5Lk7VYMT8OSqMmi-9" value="" style="endArrow=none;dashed=1;html=1;rounded=0;" parent="9U7nXSSRrDvz8QAHJqQ8-1" edge="1" target="A2wYe5Lk7VYMT8OSqMmi-10" source="aYsSUd1kMYHy3e7kK73V-3">
          <mxGeometry width="50" height="50" relative="1" as="geometry">
            <mxPoint x="220" y="450" as="sourcePoint" />
            <mxPoint x="260" y="440" as="targetPoint" />
          </mxGeometry>
        </mxCell>
        <mxCell id="A2wYe5Lk7VYMT8OSqMmi-10" value="" style="sketch=0;outlineConnect=0;fontColor=#232F3E;gradientColor=none;fillColor=#8C4FFF;strokeColor=none;dashed=0;verticalLabelPosition=bottom;verticalAlign=top;align=center;html=1;fontSize=12;fontStyle=0;aspect=fixed;pointerEvents=1;shape=mxgraph.aws4.route_table;" parent="9U7nXSSRrDvz8QAHJqQ8-1" vertex="1">
          <mxGeometry x="240" y="90" width="51.32" height="50" as="geometry" />
        </mxCell>
        <mxCell id="A2wYe5Lk7VYMT8OSqMmi-11" value="" style="sketch=0;outlineConnect=0;fontColor=#232F3E;gradientColor=none;fillColor=#8C4FFF;strokeColor=none;dashed=0;verticalLabelPosition=bottom;verticalAlign=top;align=center;html=1;fontSize=12;fontStyle=0;aspect=fixed;pointerEvents=1;shape=mxgraph.aws4.route_table;" parent="9U7nXSSRrDvz8QAHJqQ8-1" vertex="1">
          <mxGeometry x="410" y="110" width="51.32" height="50" as="geometry" />
        </mxCell>
        <mxCell id="A2wYe5Lk7VYMT8OSqMmi-12" value="" style="endArrow=none;dashed=1;html=1;rounded=0;" parent="9U7nXSSRrDvz8QAHJqQ8-1" source="A2wYe5Lk7VYMT8OSqMmi-11" edge="1" target="9U7nXSSRrDvz8QAHJqQ8-25">
          <mxGeometry width="50" height="50" relative="1" as="geometry">
            <mxPoint x="430" y="490" as="sourcePoint" />
            <mxPoint x="480" y="440" as="targetPoint" />
          </mxGeometry>
        </mxCell>
        <mxCell id="aYsSUd1kMYHy3e7kK73V-3" value="Public subnet" style="points=[[0,0],[0.25,0],[0.5,0],[0.75,0],[1,0],[1,0.25],[1,0.5],[1,0.75],[1,1],[0.75,1],[0.5,1],[0.25,1],[0,1],[0,0.75],[0,0.5],[0,0.25]];outlineConnect=0;gradientColor=none;html=1;whiteSpace=wrap;fontSize=12;fontStyle=0;container=1;pointerEvents=0;collapsible=0;recursiveResize=0;shape=mxgraph.aws4.group;grIcon=mxgraph.aws4.group_security_group;grStroke=0;strokeColor=#7AA116;fillColor=#F2F6E8;verticalAlign=top;align=left;spacingLeft=30;fontColor=#248814;dashed=0;" vertex="1" parent="9U7nXSSRrDvz8QAHJqQ8-1">
          <mxGeometry x="95" y="110" width="125" height="110" as="geometry" />
        </mxCell>
        <mxCell id="aYsSUd1kMYHy3e7kK73V-4" value="" style="outlineConnect=0;dashed=0;verticalLabelPosition=bottom;verticalAlign=top;align=center;html=1;shape=mxgraph.aws3.route_table;fillColor=#F58536;gradientColor=none;" vertex="1" parent="9U7nXSSRrDvz8QAHJqQ8-1">
          <mxGeometry x="240" y="260" width="52.5" height="50" as="geometry" />
        </mxCell>
        <mxCell id="aYsSUd1kMYHy3e7kK73V-5" value="" style="endArrow=none;dashed=1;html=1;rounded=0;entryX=0;entryY=1;entryDx=0;entryDy=0;entryPerimeter=0;" edge="1" parent="9U7nXSSRrDvz8QAHJqQ8-1" target="aYsSUd1kMYHy3e7kK73V-4">
          <mxGeometry width="50" height="50" relative="1" as="geometry">
            <mxPoint x="220" y="330" as="sourcePoint" />
            <mxPoint x="260" y="270" as="targetPoint" />
          </mxGeometry>
        </mxCell>
        <mxCell id="aYsSUd1kMYHy3e7kK73V-6" value="" style="outlineConnect=0;dashed=0;verticalLabelPosition=bottom;verticalAlign=top;align=center;html=1;shape=mxgraph.aws3.route_table;fillColor=#F58536;gradientColor=none;" vertex="1" parent="9U7nXSSRrDvz8QAHJqQ8-1">
          <mxGeometry x="411.17" y="260" width="50" height="50" as="geometry" />
        </mxCell>
        <mxCell id="aYsSUd1kMYHy3e7kK73V-8" value="" style="endArrow=none;dashed=1;html=1;rounded=0;exitX=1;exitY=0.5;exitDx=0;exitDy=0;exitPerimeter=0;entryX=0.677;entryY=0.444;entryDx=0;entryDy=0;entryPerimeter=0;" edge="1" parent="9U7nXSSRrDvz8QAHJqQ8-1" source="aYsSUd1kMYHy3e7kK73V-6" target="9U7nXSSRrDvz8QAHJqQ8-18">
          <mxGeometry width="50" height="50" relative="1" as="geometry">
            <mxPoint x="550" y="240" as="sourcePoint" />
            <mxPoint x="600" y="190" as="targetPoint" />
          </mxGeometry>
        </mxCell>
        <mxCell id="aYsSUd1kMYHy3e7kK73V-13" value="" style="endArrow=classic;html=1;rounded=0;startArrow=classicThin;startFill=1;dashed=1;" edge="1" parent="9U7nXSSRrDvz8QAHJqQ8-1" target="aYsSUd1kMYHy3e7kK73V-3">
          <mxGeometry width="50" height="50" relative="1" as="geometry">
            <mxPoint x="89.95" y="330" as="sourcePoint" />
            <mxPoint x="89.99999999999973" y="180.28499999999985" as="targetPoint" />
            <Array as="points">
              <mxPoint x="59.95" y="330" />
              <mxPoint x="60" y="165" />
            </Array>
          </mxGeometry>
        </mxCell>
        <mxCell id="aYsSUd1kMYHy3e7kK73V-14" value="" style="endArrow=classic;startArrow=classic;html=1;rounded=0;exitX=0.877;exitY=0.414;exitDx=0;exitDy=0;exitPerimeter=0;dashed=1;" edge="1" parent="9U7nXSSRrDvz8QAHJqQ8-1">
          <mxGeometry width="50" height="50" relative="1" as="geometry">
            <mxPoint x="610.05" y="168.80999999999995" as="sourcePoint" />
            <mxPoint x="610" y="323.5" as="targetPoint" />
            <Array as="points">
              <mxPoint x="640" y="168.5" />
              <mxPoint x="640" y="323.5" />
            </Array>
          </mxGeometry>
        </mxCell>
        <mxCell id="9U7nXSSRrDvz8QAHJqQ8-27" value="" style="image;html=1;image=img/lib/clip_art/networking/Firewall_02_128x128.png" parent="9U7nXSSRrDvz8QAHJqQ8-1" vertex="1">
          <mxGeometry x="505" y="545" width="80" height="70" as="geometry" />
        </mxCell>
        <mxCell id="9U7nXSSRrDvz8QAHJqQ8-28" value="NAT gateway" style="sketch=0;outlineConnect=0;fontColor=#232F3E;gradientColor=none;strokeColor=#232F3E;fillColor=#ffffff;dashed=0;verticalLabelPosition=bottom;verticalAlign=top;align=center;html=1;fontSize=12;fontStyle=0;aspect=fixed;shape=mxgraph.aws4.resourceIcon;resIcon=mxgraph.aws4.nat_gateway;" parent="9U7nXSSRrDvz8QAHJqQ8-1" vertex="1">
          <mxGeometry x="125" y="140" width="60" height="60" as="geometry" />
        </mxCell>
        <mxCell id="aYsSUd1kMYHy3e7kK73V-26" value="" style="endArrow=classic;startArrow=none;html=1;rounded=0;startFill=0;dashed=1;" edge="1" parent="9U7nXSSRrDvz8QAHJqQ8-1" target="9U7nXSSRrDvz8QAHJqQ8-24">
          <mxGeometry width="50" height="50" relative="1" as="geometry">
            <mxPoint x="545" y="430" as="sourcePoint" />
            <mxPoint x="550" y="460" as="targetPoint" />
          </mxGeometry>
        </mxCell>
        <mxCell id="aYsSUd1kMYHy3e7kK73V-27" value="" style="endArrow=classic;startArrow=none;html=1;rounded=0;startFill=0;dashed=1;" edge="1" parent="9U7nXSSRrDvz8QAHJqQ8-1">
          <mxGeometry width="50" height="50" relative="1" as="geometry">
            <mxPoint x="150" y="430" as="sourcePoint" />
            <mxPoint x="150" y="510" as="targetPoint" />
          </mxGeometry>
        </mxCell>
        <mxCell id="9U7nXSSRrDvz8QAHJqQ8-19" value="&lt;div&gt;&lt;br&gt;&lt;/div&gt;&lt;div&gt;&lt;br&gt;&lt;/div&gt;&lt;div&gt;&lt;br&gt;&lt;/div&gt;&lt;div&gt;&lt;br&gt;&lt;/div&gt;&lt;div&gt;&lt;br&gt;&lt;/div&gt;&lt;div&gt;&lt;br&gt;&lt;/div&gt;&lt;div&gt;&lt;br&gt;&lt;/div&gt;&lt;div&gt;&lt;br&gt;&lt;/div&gt;&lt;div&gt;&lt;br&gt;&lt;/div&gt;&lt;div&gt;&lt;br&gt;&lt;/div&gt;&lt;div&gt;&lt;br&gt;&lt;/div&gt;&lt;div&gt;&lt;br&gt;&lt;/div&gt;&lt;div&gt;&lt;br&gt;&lt;/div&gt;&lt;div&gt;&lt;br&gt;&lt;/div&gt;&lt;div&gt;&lt;br&gt;&lt;/div&gt;&lt;div&gt;&lt;br&gt;&lt;/div&gt;&lt;div&gt;&lt;br&gt;&lt;/div&gt;&lt;div&gt;&lt;br&gt;&lt;/div&gt;&lt;div&gt;&lt;br&gt;&lt;/div&gt;&lt;div&gt;&lt;br&gt;&lt;/div&gt;&lt;div&gt;&lt;br&gt;&lt;/div&gt;&lt;div&gt;&lt;br&gt;&lt;/div&gt;&lt;div&gt;&lt;br&gt;&lt;/div&gt;&lt;div&gt;&lt;br&gt;&lt;/div&gt;&lt;div&gt;&lt;br&gt;&lt;/div&gt;&lt;div&gt;&lt;br&gt;&lt;/div&gt;&lt;div&gt;&lt;br&gt;&lt;/div&gt;&lt;div&gt;&lt;br&gt;&lt;/div&gt;&lt;div&gt;&lt;br&gt;&lt;/div&gt;&lt;div&gt;&lt;br&gt;&lt;/div&gt;&lt;div&gt;&lt;br&gt;&lt;/div&gt;&lt;div&gt;&lt;br&gt;&lt;/div&gt;&lt;div&gt;&lt;br&gt;&lt;/div&gt;" style="sketch=0;outlineConnect=0;fontColor=#232F3E;gradientColor=none;strokeColor=#232F3E;fillColor=#ffffff;dashed=0;verticalLabelPosition=bottom;verticalAlign=top;align=center;html=1;fontSize=12;fontStyle=0;aspect=fixed;shape=mxgraph.aws4.resourceIcon;resIcon=mxgraph.aws4.internet_gateway;" parent="9U7nXSSRrDvz8QAHJqQ8-1" vertex="1">
          <mxGeometry x="325" y="10" width="60" height="60" as="geometry" />
        </mxCell>
        <mxCell id="aYsSUd1kMYHy3e7kK73V-46" value="" style="endArrow=classic;startArrow=classic;html=1;rounded=0;exitX=0.277;exitY=0.218;exitDx=0;exitDy=0;exitPerimeter=0;" edge="1" parent="9U7nXSSRrDvz8QAHJqQ8-1" source="9U7nXSSRrDvz8QAHJqQ8-18">
          <mxGeometry width="50" height="50" relative="1" as="geometry">
            <mxPoint x="840" y="490" as="sourcePoint" />
            <mxPoint x="350" y="60" as="targetPoint" />
            <Array as="points">
              <mxPoint x="350" y="180" />
            </Array>
          </mxGeometry>
        </mxCell>
        <mxCell id="aYsSUd1kMYHy3e7kK73V-47" value="" style="endArrow=classic;startArrow=classic;html=1;rounded=0;exitX=0.677;exitY=0.218;exitDx=0;exitDy=0;exitPerimeter=0;entryX=0.576;entryY=0.885;entryDx=0;entryDy=0;entryPerimeter=0;" edge="1" parent="9U7nXSSRrDvz8QAHJqQ8-1" source="9U7nXSSRrDvz8QAHJqQ8-18" target="9U7nXSSRrDvz8QAHJqQ8-19">
          <mxGeometry width="50" height="50" relative="1" as="geometry">
            <mxPoint x="510" y="220" as="sourcePoint" />
            <mxPoint x="360" y="70" as="targetPoint" />
            <Array as="points">
              <mxPoint x="360" y="180" />
            </Array>
          </mxGeometry>
        </mxCell>
        <mxCell id="aYsSUd1kMYHy3e7kK73V-48" value="" style="outlineConnect=0;dashed=0;verticalLabelPosition=bottom;verticalAlign=top;align=center;html=1;shape=mxgraph.aws3.ec2;fillColor=#F58534;gradientColor=none;" vertex="1" parent="9U7nXSSRrDvz8QAHJqQ8-1">
          <mxGeometry x="115" y="323.5" width="76.5" height="93" as="geometry" />
        </mxCell>
        <mxCell id="aYsSUd1kMYHy3e7kK73V-49" value="" style="outlineConnect=0;dashed=0;verticalLabelPosition=bottom;verticalAlign=top;align=center;html=1;shape=mxgraph.aws3.ec2;fillColor=#F58534;gradientColor=none;" vertex="1" parent="9U7nXSSRrDvz8QAHJqQ8-1">
          <mxGeometry x="508.5" y="330" width="76.5" height="93" as="geometry" />
        </mxCell>
        <mxCell id="9U7nXSSRrDvz8QAHJqQ8-34" value="AWS Account" style="points=[[0,0],[0.25,0],[0.5,0],[0.75,0],[1,0],[1,0.25],[1,0.5],[1,0.75],[1,1],[0.75,1],[0.5,1],[0.25,1],[0,1],[0,0.75],[0,0.5],[0,0.25]];outlineConnect=0;gradientColor=none;html=1;whiteSpace=wrap;fontSize=12;fontStyle=0;container=1;pointerEvents=0;collapsible=0;recursiveResize=0;shape=mxgraph.aws4.group;grIcon=mxgraph.aws4.group_account;strokeColor=#CD2264;fillColor=none;verticalAlign=top;align=left;spacingLeft=30;fontColor=#CD2264;dashed=0;" parent="1" vertex="1">
          <mxGeometry x="980" y="-790" width="660" height="730" as="geometry" />
        </mxCell>
        <mxCell id="9U7nXSSRrDvz8QAHJqQ8-36" value="VPC" style="sketch=0;outlineConnect=0;gradientColor=none;html=1;whiteSpace=wrap;fontSize=12;fontStyle=0;shape=mxgraph.aws4.group;grIcon=mxgraph.aws4.group_vpc;strokeColor=#879196;fillColor=none;verticalAlign=top;align=left;spacingLeft=30;fontColor=#879196;dashed=0;" parent="9U7nXSSRrDvz8QAHJqQ8-34" vertex="1">
          <mxGeometry x="50" y="30" width="600" height="670" as="geometry" />
        </mxCell>
        <mxCell id="9U7nXSSRrDvz8QAHJqQ8-37" value="Private subnet" style="points=[[0,0],[0.25,0],[0.5,0],[0.75,0],[1,0],[1,0.25],[1,0.5],[1,0.75],[1,1],[0.75,1],[0.5,1],[0.25,1],[0,1],[0,0.75],[0,0.5],[0,0.25]];outlineConnect=0;gradientColor=none;html=1;whiteSpace=wrap;fontSize=12;fontStyle=0;container=1;pointerEvents=0;collapsible=0;recursiveResize=0;shape=mxgraph.aws4.group;grIcon=mxgraph.aws4.group_security_group;grStroke=0;strokeColor=#00A4A6;fillColor=#E6F6F7;verticalAlign=top;align=left;spacingLeft=30;fontColor=#147EBA;dashed=0;" parent="9U7nXSSRrDvz8QAHJqQ8-34" vertex="1">
          <mxGeometry x="350" y="540" width="270" height="120" as="geometry" />
        </mxCell>
        <mxCell id="9U7nXSSRrDvz8QAHJqQ8-42" value="Availability zone" style="sketch=0;outlineConnect=0;gradientColor=none;html=1;whiteSpace=wrap;fontSize=12;fontStyle=0;shape=mxgraph.aws4.group;grIcon=mxgraph.aws4.group_availability_zone;strokeColor=#545B64;fillColor=none;verticalAlign=top;align=left;spacingLeft=30;fontColor=#545B64;dashed=1;" parent="9U7nXSSRrDvz8QAHJqQ8-34" vertex="1">
          <mxGeometry x="160" y="60" width="478.25" height="190" as="geometry" />
        </mxCell>
        <mxCell id="9U7nXSSRrDvz8QAHJqQ8-41" value="Availability zone" style="sketch=0;outlineConnect=0;gradientColor=none;html=1;whiteSpace=wrap;fontSize=12;fontStyle=0;shape=mxgraph.aws4.group;grIcon=mxgraph.aws4.group_availability_zone;strokeColor=#545B64;fillColor=none;verticalAlign=top;align=left;spacingLeft=30;fontColor=#545B64;dashed=1;" parent="9U7nXSSRrDvz8QAHJqQ8-34" vertex="1">
          <mxGeometry x="150" y="470" width="490" height="210" as="geometry" />
        </mxCell>
        <mxCell id="A2wYe5Lk7VYMT8OSqMmi-13" value="" style="sketch=0;outlineConnect=0;fontColor=#232F3E;gradientColor=none;fillColor=#8C4FFF;strokeColor=none;dashed=0;verticalLabelPosition=bottom;verticalAlign=top;align=center;html=1;fontSize=12;fontStyle=0;aspect=fixed;pointerEvents=1;shape=mxgraph.aws4.route_table;" parent="9U7nXSSRrDvz8QAHJqQ8-34" vertex="1">
          <mxGeometry x="329.47" y="70" width="41.05" height="40" as="geometry" />
        </mxCell>
        <mxCell id="9U7nXSSRrDvz8QAHJqQ8-49" value="Private subnet" style="points=[[0,0],[0.25,0],[0.5,0],[0.75,0],[1,0],[1,0.25],[1,0.5],[1,0.75],[1,1],[0.75,1],[0.5,1],[0.25,1],[0,1],[0,0.75],[0,0.5],[0,0.25]];outlineConnect=0;gradientColor=none;html=1;whiteSpace=wrap;fontSize=12;fontStyle=0;container=1;pointerEvents=0;collapsible=0;recursiveResize=0;shape=mxgraph.aws4.group;grIcon=mxgraph.aws4.group_security_group;grStroke=0;strokeColor=#00A4A6;fillColor=#E6F6F7;verticalAlign=top;align=left;spacingLeft=30;fontColor=#147EBA;dashed=0;" parent="9U7nXSSRrDvz8QAHJqQ8-34" vertex="1">
          <mxGeometry x="391.05" y="90" width="230" height="120" as="geometry" />
        </mxCell>
        <mxCell id="9U7nXSSRrDvz8QAHJqQ8-51" value="" style="outlineConnect=0;dashed=0;verticalLabelPosition=bottom;verticalAlign=top;align=center;html=1;shape=mxgraph.aws3.ec2;fillColor=#F58534;gradientColor=none;" parent="9U7nXSSRrDvz8QAHJqQ8-49" vertex="1">
          <mxGeometry x="138.95" y="30" width="71.05" height="80" as="geometry" />
        </mxCell>
        <mxCell id="9U7nXSSRrDvz8QAHJqQ8-57" value="" style="outlineConnect=0;dashed=0;verticalLabelPosition=bottom;verticalAlign=top;align=center;html=1;shape=mxgraph.aws3.ec2;fillColor=#F58534;gradientColor=none;" parent="9U7nXSSRrDvz8QAHJqQ8-34" vertex="1">
          <mxGeometry x="420" y="120" width="70" height="83" as="geometry" />
        </mxCell>
        <mxCell id="A2wYe5Lk7VYMT8OSqMmi-22" value="" style="outlineConnect=0;dashed=0;verticalLabelPosition=bottom;verticalAlign=top;align=center;html=1;shape=mxgraph.aws3.ec2;fillColor=#F58534;gradientColor=none;" parent="9U7nXSSRrDvz8QAHJqQ8-34" vertex="1">
          <mxGeometry x="360" y="570" width="76.5" height="83.5" as="geometry" />
        </mxCell>
        <mxCell id="A2wYe5Lk7VYMT8OSqMmi-23" value="" style="outlineConnect=0;dashed=0;verticalLabelPosition=bottom;verticalAlign=top;align=center;html=1;shape=mxgraph.aws3.ec2;fillColor=#F58534;gradientColor=none;" parent="9U7nXSSRrDvz8QAHJqQ8-34" vertex="1">
          <mxGeometry x="530" y="570" width="76.5" height="83" as="geometry" />
        </mxCell>
        <mxCell id="A2wYe5Lk7VYMT8OSqMmi-24" value="" style="outlineConnect=0;dashed=0;verticalLabelPosition=bottom;verticalAlign=top;align=center;html=1;shape=mxgraph.aws3.application_load_balancer;fillColor=#F58534;gradientColor=none;" parent="9U7nXSSRrDvz8QAHJqQ8-34" vertex="1">
          <mxGeometry x="320.5" y="335" width="59" height="60" as="geometry" />
        </mxCell>
        <mxCell id="9U7nXSSRrDvz8QAHJqQ8-82" value="" style="sketch=0;outlineConnect=0;fontColor=#232F3E;gradientColor=none;fillColor=#8C4FFF;strokeColor=none;dashed=0;verticalLabelPosition=bottom;verticalAlign=top;align=center;html=1;fontSize=12;fontStyle=0;aspect=fixed;pointerEvents=1;shape=mxgraph.aws4.transit_gateway_attachment;" parent="9U7nXSSRrDvz8QAHJqQ8-34" vertex="1">
          <mxGeometry x="30" y="335" width="54" height="54" as="geometry" />
        </mxCell>
        <mxCell id="aYsSUd1kMYHy3e7kK73V-19" value="" style="image;aspect=fixed;html=1;points=[];align=center;fontSize=12;image=img/lib/azure2/other/Targets_Management.svg;" vertex="1" parent="9U7nXSSRrDvz8QAHJqQ8-34">
          <mxGeometry x="122" y="556" width="58" height="58" as="geometry" />
        </mxCell>
        <mxCell id="aYsSUd1kMYHy3e7kK73V-20" value="" style="image;aspect=fixed;html=1;points=[];align=center;fontSize=12;image=img/lib/azure2/other/Targets_Management.svg;" vertex="1" parent="9U7nXSSRrDvz8QAHJqQ8-34">
          <mxGeometry x="130" y="120" width="60" height="60" as="geometry" />
        </mxCell>
        <mxCell id="aYsSUd1kMYHy3e7kK73V-21" value="" style="endArrow=classic;startArrow=classic;html=1;rounded=0;" edge="1" parent="9U7nXSSRrDvz8QAHJqQ8-34" source="A2wYe5Lk7VYMT8OSqMmi-24" target="aYsSUd1kMYHy3e7kK73V-20">
          <mxGeometry width="50" height="50" relative="1" as="geometry">
            <mxPoint x="110" y="260" as="sourcePoint" />
            <mxPoint x="160" y="210" as="targetPoint" />
            <Array as="points">
              <mxPoint x="350" y="300" />
              <mxPoint x="110" y="300" />
              <mxPoint x="110" y="150" />
            </Array>
          </mxGeometry>
        </mxCell>
        <mxCell id="aYsSUd1kMYHy3e7kK73V-22" value="" style="endArrow=classic;startArrow=classic;html=1;rounded=0;entryX=0.5;entryY=1;entryDx=0;entryDy=0;entryPerimeter=0;" edge="1" parent="9U7nXSSRrDvz8QAHJqQ8-34" source="aYsSUd1kMYHy3e7kK73V-19" target="A2wYe5Lk7VYMT8OSqMmi-24">
          <mxGeometry width="50" height="50" relative="1" as="geometry">
            <mxPoint x="80" y="442" as="sourcePoint" />
            <mxPoint x="130" y="392" as="targetPoint" />
            <Array as="points">
              <mxPoint x="100" y="585" />
              <mxPoint x="100" y="420" />
              <mxPoint x="350" y="420" />
            </Array>
          </mxGeometry>
        </mxCell>
        <mxCell id="aYsSUd1kMYHy3e7kK73V-29" value="" style="sketch=0;outlineConnect=0;fontColor=#232F3E;gradientColor=none;fillColor=#8C4FFF;strokeColor=none;dashed=0;verticalLabelPosition=bottom;verticalAlign=top;align=center;html=1;fontSize=12;fontStyle=0;aspect=fixed;pointerEvents=1;shape=mxgraph.aws4.route_table;" vertex="1" parent="9U7nXSSRrDvz8QAHJqQ8-34">
          <mxGeometry x="530" y="480" width="40" height="38.97" as="geometry" />
        </mxCell>
        <mxCell id="aYsSUd1kMYHy3e7kK73V-31" value="" style="endArrow=none;dashed=1;html=1;rounded=0;" edge="1" parent="9U7nXSSRrDvz8QAHJqQ8-34">
          <mxGeometry width="50" height="50" relative="1" as="geometry">
            <mxPoint x="390" y="120" as="sourcePoint" />
            <mxPoint x="370.5" y="100" as="targetPoint" />
          </mxGeometry>
        </mxCell>
        <mxCell id="aYsSUd1kMYHy3e7kK73V-36" value="" style="endArrow=classic;startArrow=classic;html=1;rounded=0;dashed=1;" edge="1" parent="9U7nXSSRrDvz8QAHJqQ8-34">
          <mxGeometry width="50" height="50" relative="1" as="geometry">
            <mxPoint x="170" y="585" as="sourcePoint" />
            <mxPoint x="350" y="585" as="targetPoint" />
          </mxGeometry>
        </mxCell>
        <mxCell id="aYsSUd1kMYHy3e7kK73V-38" value="" style="endArrow=none;dashed=1;html=1;rounded=0;" edge="1" parent="9U7nXSSRrDvz8QAHJqQ8-34">
          <mxGeometry width="50" height="50" relative="1" as="geometry">
            <mxPoint x="481" y="540" as="sourcePoint" />
            <mxPoint x="531.05" y="500" as="targetPoint" />
          </mxGeometry>
        </mxCell>
        <mxCell id="aYsSUd1kMYHy3e7kK73V-39" value="" style="endArrow=classic;startArrow=classic;html=1;rounded=0;dashed=1;" edge="1" parent="9U7nXSSRrDvz8QAHJqQ8-34" source="aYsSUd1kMYHy3e7kK73V-20">
          <mxGeometry width="50" height="50" relative="1" as="geometry">
            <mxPoint x="320.1337499999999" y="149.57000000000005" as="sourcePoint" />
            <mxPoint x="394.39000000000004" y="149.61" as="targetPoint" />
          </mxGeometry>
        </mxCell>
        <mxCell id="9U7nXSSRrDvz8QAHJqQ8-60" value="AWS Account" style="points=[[0,0],[0.25,0],[0.5,0],[0.75,0],[1,0],[1,0.25],[1,0.5],[1,0.75],[1,1],[0.75,1],[0.5,1],[0.25,1],[0,1],[0,0.75],[0,0.5],[0,0.25]];outlineConnect=0;gradientColor=none;html=1;whiteSpace=wrap;fontSize=12;fontStyle=0;container=1;pointerEvents=0;collapsible=0;recursiveResize=0;shape=mxgraph.aws4.group;grIcon=mxgraph.aws4.group_account;strokeColor=#CD2264;fillColor=none;verticalAlign=top;align=left;spacingLeft=30;fontColor=#CD2264;dashed=0;" parent="1" vertex="1">
          <mxGeometry x="60" y="80" width="760" height="760" as="geometry" />
        </mxCell>
        <mxCell id="9U7nXSSRrDvz8QAHJqQ8-64" value="VPC" style="sketch=0;outlineConnect=0;gradientColor=none;html=1;whiteSpace=wrap;fontSize=12;fontStyle=0;shape=mxgraph.aws4.group;grIcon=mxgraph.aws4.group_vpc;strokeColor=#879196;fillColor=none;verticalAlign=top;align=left;spacingLeft=30;fontColor=#879196;dashed=0;" parent="9U7nXSSRrDvz8QAHJqQ8-60" vertex="1">
          <mxGeometry x="30" y="30" width="660" height="680" as="geometry" />
        </mxCell>
        <mxCell id="9U7nXSSRrDvz8QAHJqQ8-68" value="Availability zone" style="sketch=0;outlineConnect=0;gradientColor=none;html=1;whiteSpace=wrap;fontSize=12;fontStyle=0;shape=mxgraph.aws4.group;grIcon=mxgraph.aws4.group_availability_zone;strokeColor=#545B64;fillColor=none;verticalAlign=top;align=left;spacingLeft=30;fontColor=#545B64;dashed=1;" parent="9U7nXSSRrDvz8QAHJqQ8-60" vertex="1">
          <mxGeometry x="70" y="100" width="390" height="560" as="geometry" />
        </mxCell>
        <mxCell id="9U7nXSSRrDvz8QAHJqQ8-73" value="Private subnet" style="points=[[0,0],[0.25,0],[0.5,0],[0.75,0],[1,0],[1,0.25],[1,0.5],[1,0.75],[1,1],[0.75,1],[0.5,1],[0.25,1],[0,1],[0,0.75],[0,0.5],[0,0.25]];outlineConnect=0;gradientColor=none;html=1;whiteSpace=wrap;fontSize=12;fontStyle=0;container=1;pointerEvents=0;collapsible=0;recursiveResize=0;shape=mxgraph.aws4.group;grIcon=mxgraph.aws4.group_security_group;grStroke=0;strokeColor=#00A4A6;fillColor=#E6F6F7;verticalAlign=top;align=left;spacingLeft=30;fontColor=#147EBA;dashed=0;" parent="9U7nXSSRrDvz8QAHJqQ8-60" vertex="1">
          <mxGeometry x="100" y="160" width="170" height="470" as="geometry" />
        </mxCell>
        <mxCell id="9U7nXSSRrDvz8QAHJqQ8-74" value="" style="outlineConnect=0;dashed=0;verticalLabelPosition=bottom;verticalAlign=top;align=center;html=1;shape=mxgraph.aws3.inspector;fillColor=#759C3E;gradientColor=none;" parent="9U7nXSSRrDvz8QAHJqQ8-60" vertex="1">
          <mxGeometry x="140" y="210" width="67.5" height="81" as="geometry" />
        </mxCell>
        <mxCell id="A2wYe5Lk7VYMT8OSqMmi-1" value="" style="sketch=0;outlineConnect=0;fontColor=#232F3E;gradientColor=none;fillColor=#8C4FFF;strokeColor=none;dashed=0;verticalLabelPosition=bottom;verticalAlign=top;align=center;html=1;fontSize=12;fontStyle=0;aspect=fixed;pointerEvents=1;shape=mxgraph.aws4.transit_gateway_attachment;" parent="9U7nXSSRrDvz8QAHJqQ8-60" vertex="1">
          <mxGeometry x="660" y="140" width="50" height="50" as="geometry" />
        </mxCell>
        <mxCell id="aYsSUd1kMYHy3e7kK73V-18" value="" style="outlineConnect=0;dashed=0;verticalLabelPosition=bottom;verticalAlign=top;align=center;html=1;shape=mxgraph.aws3.route_table;fillColor=#F58536;gradientColor=none;" vertex="1" parent="9U7nXSSRrDvz8QAHJqQ8-60">
          <mxGeometry x="320" y="320" width="75" height="69" as="geometry" />
        </mxCell>
        <mxCell id="aYsSUd1kMYHy3e7kK73V-24" value="" style="endArrow=none;dashed=1;html=1;rounded=0;entryX=0;entryY=0.5;entryDx=0;entryDy=0;entryPerimeter=0;exitX=0.513;exitY=0.321;exitDx=0;exitDy=0;exitPerimeter=0;" edge="1" parent="9U7nXSSRrDvz8QAHJqQ8-60" source="9U7nXSSRrDvz8QAHJqQ8-68" target="aYsSUd1kMYHy3e7kK73V-18">
          <mxGeometry width="50" height="50" relative="1" as="geometry">
            <mxPoint x="1070" y="440" as="sourcePoint" />
            <mxPoint x="1120" y="390" as="targetPoint" />
          </mxGeometry>
        </mxCell>
        <mxCell id="aYsSUd1kMYHy3e7kK73V-44" value="" style="sketch=0;points=[[0,0,0],[0.25,0,0],[0.5,0,0],[0.75,0,0],[1,0,0],[0,1,0],[0.25,1,0],[0.5,1,0],[0.75,1,0],[1,1,0],[0,0.25,0],[0,0.5,0],[0,0.75,0],[1,0.25,0],[1,0.5,0],[1,0.75,0]];outlineConnect=0;fontColor=#232F3E;fillColor=#DD344C;strokeColor=#ffffff;dashed=0;verticalLabelPosition=bottom;verticalAlign=top;align=center;html=1;fontSize=12;fontStyle=0;aspect=fixed;shape=mxgraph.aws4.resourceIcon;resIcon=mxgraph.aws4.security_hub;" vertex="1" parent="9U7nXSSRrDvz8QAHJqQ8-60">
          <mxGeometry x="134.75" y="510" width="78" height="78" as="geometry" />
        </mxCell>
        <mxCell id="9U7nXSSRrDvz8QAHJqQ8-61" value="AWS Account" style="points=[[0,0],[0.25,0],[0.5,0],[0.75,0],[1,0],[1,0.25],[1,0.5],[1,0.75],[1,1],[0.75,1],[0.5,1],[0.25,1],[0,1],[0,0.75],[0,0.5],[0,0.25]];outlineConnect=0;gradientColor=none;html=1;whiteSpace=wrap;fontSize=12;fontStyle=0;container=1;pointerEvents=0;collapsible=0;recursiveResize=0;shape=mxgraph.aws4.group;grIcon=mxgraph.aws4.group_account;strokeColor=#CD2264;fillColor=none;verticalAlign=top;align=left;spacingLeft=30;fontColor=#CD2264;dashed=0;" parent="1" vertex="1">
          <mxGeometry x="980" y="80" width="660" height="750" as="geometry" />
        </mxCell>
        <mxCell id="9U7nXSSRrDvz8QAHJqQ8-62" value="VPC" style="sketch=0;outlineConnect=0;gradientColor=none;html=1;whiteSpace=wrap;fontSize=12;fontStyle=0;shape=mxgraph.aws4.group;grIcon=mxgraph.aws4.group_vpc;strokeColor=#879196;fillColor=none;verticalAlign=top;align=left;spacingLeft=30;fontColor=#879196;dashed=0;" parent="9U7nXSSRrDvz8QAHJqQ8-61" vertex="1">
          <mxGeometry x="40" y="50" width="570" height="660" as="geometry" />
        </mxCell>
        <mxCell id="9U7nXSSRrDvz8QAHJqQ8-65" value="Private subnet" style="points=[[0,0],[0.25,0],[0.5,0],[0.75,0],[1,0],[1,0.25],[1,0.5],[1,0.75],[1,1],[0.75,1],[0.5,1],[0.25,1],[0,1],[0,0.75],[0,0.5],[0,0.25]];outlineConnect=0;gradientColor=none;html=1;whiteSpace=wrap;fontSize=12;fontStyle=0;container=1;pointerEvents=0;collapsible=0;recursiveResize=0;shape=mxgraph.aws4.group;grIcon=mxgraph.aws4.group_security_group;grStroke=0;strokeColor=#00A4A6;fillColor=#E6F6F7;verticalAlign=top;align=left;spacingLeft=30;fontColor=#147EBA;dashed=0;" parent="9U7nXSSRrDvz8QAHJqQ8-61" vertex="1">
          <mxGeometry x="340" y="120" width="230" height="500" as="geometry" />
        </mxCell>
        <mxCell id="9U7nXSSRrDvz8QAHJqQ8-66" value="Amazon S3" style="sketch=0;outlineConnect=0;fontColor=#232F3E;gradientColor=none;strokeColor=#ffffff;fillColor=#232F3E;dashed=0;verticalLabelPosition=middle;verticalAlign=bottom;align=center;html=1;whiteSpace=wrap;fontSize=10;fontStyle=1;spacing=3;shape=mxgraph.aws4.productIcon;prIcon=mxgraph.aws4.s3;" parent="9U7nXSSRrDvz8QAHJqQ8-61" vertex="1">
          <mxGeometry x="420" y="200" width="120" height="320" as="geometry" />
        </mxCell>
        <mxCell id="9U7nXSSRrDvz8QAHJqQ8-71" value="Availability zone" style="sketch=0;outlineConnect=0;gradientColor=none;html=1;whiteSpace=wrap;fontSize=12;fontStyle=0;shape=mxgraph.aws4.group;grIcon=mxgraph.aws4.group_availability_zone;strokeColor=#545B64;fillColor=none;verticalAlign=top;align=left;spacingLeft=30;fontColor=#545B64;dashed=1;" parent="9U7nXSSRrDvz8QAHJqQ8-61" vertex="1">
          <mxGeometry x="110" y="85" width="480" height="555" as="geometry" />
        </mxCell>
        <mxCell id="A2wYe5Lk7VYMT8OSqMmi-2" value="" style="sketch=0;outlineConnect=0;fontColor=#232F3E;gradientColor=none;fillColor=#8C4FFF;strokeColor=none;dashed=0;verticalLabelPosition=bottom;verticalAlign=top;align=center;html=1;fontSize=12;fontStyle=0;aspect=fixed;pointerEvents=1;shape=mxgraph.aws4.transit_gateway_attachment;" parent="9U7nXSSRrDvz8QAHJqQ8-61" vertex="1">
          <mxGeometry x="20" y="140" width="50" height="50" as="geometry" />
        </mxCell>
        <mxCell id="aYsSUd1kMYHy3e7kK73V-17" value="" style="outlineConnect=0;dashed=0;verticalLabelPosition=bottom;verticalAlign=top;align=center;html=1;shape=mxgraph.aws3.route_table;fillColor=#F58536;gradientColor=none;" vertex="1" parent="9U7nXSSRrDvz8QAHJqQ8-61">
          <mxGeometry x="240" y="160" width="75" height="69" as="geometry" />
        </mxCell>
        <mxCell id="aYsSUd1kMYHy3e7kK73V-23" value="" style="endArrow=none;dashed=1;html=1;rounded=0;exitX=0.5;exitY=1;exitDx=0;exitDy=0;exitPerimeter=0;" edge="1" parent="9U7nXSSRrDvz8QAHJqQ8-61" source="aYsSUd1kMYHy3e7kK73V-17">
          <mxGeometry width="50" height="50" relative="1" as="geometry">
            <mxPoint x="280" y="460" as="sourcePoint" />
            <mxPoint x="340" y="250" as="targetPoint" />
          </mxGeometry>
        </mxCell>
        <mxCell id="aYsSUd1kMYHy3e7kK73V-42" value="" style="outlineConnect=0;dashed=0;verticalLabelPosition=bottom;verticalAlign=top;align=center;html=1;shape=mxgraph.aws3.iam;fillColor=#759C3E;gradientColor=none;" vertex="1" parent="9U7nXSSRrDvz8QAHJqQ8-61">
          <mxGeometry x="360" y="520" width="42" height="81" as="geometry" />
        </mxCell>
        <mxCell id="aYsSUd1kMYHy3e7kK73V-43" value="" style="endArrow=none;dashed=1;html=1;rounded=0;entryX=0.5;entryY=1;entryDx=0;entryDy=0;entryPerimeter=0;exitX=0.708;exitY=0.784;exitDx=0;exitDy=0;exitPerimeter=0;" edge="1" parent="9U7nXSSRrDvz8QAHJqQ8-61" source="9U7nXSSRrDvz8QAHJqQ8-71" target="aYsSUd1kMYHy3e7kK73V-42">
          <mxGeometry width="50" height="50" relative="1" as="geometry">
            <mxPoint x="50" y="110" as="sourcePoint" />
            <mxPoint x="100" y="60" as="targetPoint" />
          </mxGeometry>
        </mxCell>
        <mxCell id="9U7nXSSRrDvz8QAHJqQ8-76" value="" style="sketch=0;points=[[0,0,0],[0.25,0,0],[0.5,0,0],[0.75,0,0],[1,0,0],[0,1,0],[0.25,1,0],[0.5,1,0],[0.75,1,0],[1,1,0],[0,0.25,0],[0,0.5,0],[0,0.75,0],[1,0.25,0],[1,0.5,0],[1,0.75,0]];outlineConnect=0;fontColor=#232F3E;fillColor=#8C4FFF;strokeColor=#ffffff;dashed=0;verticalLabelPosition=bottom;verticalAlign=top;align=center;html=1;fontSize=12;fontStyle=0;aspect=fixed;shape=mxgraph.aws4.resourceIcon;resIcon=mxgraph.aws4.transit_gateway;" parent="1" vertex="1">
          <mxGeometry x="860" y="-20" width="78" height="78" as="geometry" />
        </mxCell>
        <mxCell id="9U7nXSSRrDvz8QAHJqQ8-77" value="" style="endArrow=classic;html=1;rounded=0;exitX=0.25;exitY=0;exitDx=0;exitDy=0;exitPerimeter=0;startArrow=blockThin;startFill=1;" parent="1" source="9U7nXSSRrDvz8QAHJqQ8-76" target="9U7nXSSRrDvz8QAHJqQ8-81" edge="1">
          <mxGeometry width="50" height="50" relative="1" as="geometry">
            <mxPoint x="920" y="-695" as="sourcePoint" />
            <mxPoint x="760" y="-220" as="targetPoint" />
            <Array as="points">
              <mxPoint x="880" y="-190" />
            </Array>
          </mxGeometry>
        </mxCell>
        <mxCell id="9U7nXSSRrDvz8QAHJqQ8-78" value="" style="endArrow=classic;html=1;rounded=0;exitX=0.75;exitY=0;exitDx=0;exitDy=0;exitPerimeter=0;startArrow=blockThin;startFill=1;" parent="1" source="9U7nXSSRrDvz8QAHJqQ8-76" edge="1" target="9U7nXSSRrDvz8QAHJqQ8-82">
          <mxGeometry width="50" height="50" relative="1" as="geometry">
            <mxPoint x="890" y="-320" as="sourcePoint" />
            <mxPoint x="1010" y="-690" as="targetPoint" />
            <Array as="points">
              <mxPoint x="920" y="-428" />
            </Array>
          </mxGeometry>
        </mxCell>
        <mxCell id="9U7nXSSRrDvz8QAHJqQ8-79" value="" style="endArrow=classic;html=1;rounded=0;exitX=0.25;exitY=1;exitDx=0;exitDy=0;exitPerimeter=0;startArrow=blockThin;startFill=1;" parent="1" source="9U7nXSSRrDvz8QAHJqQ8-76" target="A2wYe5Lk7VYMT8OSqMmi-1" edge="1">
          <mxGeometry width="50" height="50" relative="1" as="geometry">
            <mxPoint x="710" y="-170" as="sourcePoint" />
            <mxPoint x="880" y="250" as="targetPoint" />
            <Array as="points">
              <mxPoint x="880" y="245" />
            </Array>
          </mxGeometry>
        </mxCell>
        <mxCell id="9U7nXSSRrDvz8QAHJqQ8-80" value="" style="endArrow=classic;html=1;rounded=0;exitX=0.75;exitY=1;exitDx=0;exitDy=0;exitPerimeter=0;startArrow=blockThin;startFill=1;" parent="1" source="9U7nXSSRrDvz8QAHJqQ8-76" target="A2wYe5Lk7VYMT8OSqMmi-2" edge="1">
          <mxGeometry width="50" height="50" relative="1" as="geometry">
            <mxPoint x="890" y="-242" as="sourcePoint" />
            <mxPoint x="950" y="240" as="targetPoint" />
            <Array as="points">
              <mxPoint x="919" y="245" />
            </Array>
          </mxGeometry>
        </mxCell>
        <mxCell id="aYsSUd1kMYHy3e7kK73V-1" value="" style="image;aspect=fixed;perimeter=ellipsePerimeter;html=1;align=center;shadow=0;dashed=0;spacingTop=3;image=img/lib/active_directory/internet_globe.svg;" vertex="1" parent="1">
          <mxGeometry x="400" y="-1010" width="50" height="50" as="geometry" />
        </mxCell>
        <mxCell id="aYsSUd1kMYHy3e7kK73V-2" value="" style="endArrow=classic;html=1;rounded=0;exitX=0.5;exitY=1;exitDx=0;exitDy=0;entryX=0.483;entryY=0.158;entryDx=0;entryDy=0;entryPerimeter=0;" edge="1" parent="1" source="aYsSUd1kMYHy3e7kK73V-1" target="9U7nXSSRrDvz8QAHJqQ8-19">
          <mxGeometry width="50" height="50" relative="1" as="geometry">
            <mxPoint x="620" y="-780" as="sourcePoint" />
            <mxPoint x="900" y="-410" as="targetPoint" />
            <Array as="points">
              <mxPoint x="425" y="-870" />
            </Array>
          </mxGeometry>
        </mxCell>
        <mxCell id="aYsSUd1kMYHy3e7kK73V-15" value="" style="outlineConnect=0;dashed=0;verticalLabelPosition=bottom;verticalAlign=top;align=center;html=1;shape=mxgraph.aws3.route_table;fillColor=#F58536;gradientColor=none;" vertex="1" parent="1">
          <mxGeometry x="760" width="60" height="60" as="geometry" />
        </mxCell>
        <mxCell id="aYsSUd1kMYHy3e7kK73V-16" value="" style="endArrow=none;dashed=1;html=1;dashPattern=1 3;strokeWidth=2;rounded=0;exitX=0;exitY=0.25;exitDx=0;exitDy=0;exitPerimeter=0;" edge="1" parent="1" source="9U7nXSSRrDvz8QAHJqQ8-76" target="aYsSUd1kMYHy3e7kK73V-15">
          <mxGeometry width="50" height="50" relative="1" as="geometry">
            <mxPoint x="810" y="-330" as="sourcePoint" />
            <mxPoint x="860" y="-380" as="targetPoint" />
          </mxGeometry>
        </mxCell>
      </root>
    </mxGraphModel>
  </diagram>
</mxfile>
